<svg xmlns="http://www.w3.org/2000/svg" viewBox="0 0 128 128" width="64" height="64">
  <defs>
    <linearGradient id="phantomBg" x1="0%" y1="0%" x2="100%" y2="100%">
      <stop offset="0%" stop-color="#534BB1"/>
      <stop offset="100%" stop-color="#551BF9"/>
    </linearGradient>
  </defs>
  <rect width="128" height="128" rx="28" fill="url(#phantomBg)"/>
  <path fill="#FFFFFF" d="M110 64c0-25.4-20.6-46-46-46S18 38.6 18 64c0 12.4 4.9 23.6 12.9 31.9V108c0 1.1.9 2 2 2h6c1.1 0 2-.9 2-2V96.7c5.2 2.6 11 4.1 17.1 4.4V108c0 1.1.9 2 2 2h6c1.1 0 2-.9 2-2v-6.9c6.1-.3 11.9-1.8 17.1-4.4V108c0 1.1.9 2 2 2h6c1.1 0 2-.9 2-2V95.9C105.1 87.6 110 76.4 110 64zM48 70a8 8 0 110-16 8 8 0 010 16zm32 0a8 8 0 110-16 8 8 0 010 16z"/>
</svg>
